solid double_square_plate_area1_normal_minusX
  facet normal -1.000000 0.000000 0.000000
    outer loop
      vertex 0.000000 -0.500000 -0.500000
      vertex 0.000000 -0.500000 0.500000
      vertex 0.000000 0.500000 0.500000
    endloop
  endfacet
  facet normal -1.000000 0.000000 0.000000
    outer loop
      vertex 0.000000 -0.500000 -0.500000
      vertex 0.000000 0.500000 0.500000
      vertex 0.000000 0.500000 -0.500000
    endloop
  endfacet

  facet normal -1.000000 0.000000 0.000000
    outer loop
      vertex 1.000000 -0.500000 -0.500000
      vertex 1.000000 -0.500000 0.500000
      vertex 1.000000 0.500000 0.500000
    endloop
  endfacet
  facet normal -1.000000 0.000000 0.000000
    outer loop
      vertex 1.000000 -0.500000 -0.500000
      vertex 1.000000 0.500000 0.500000
      vertex 1.000000 0.500000 -0.500000
    endloop
  endfacet
endsolid double_square_plate_area1_normal_minusX
